<?xml version="1.0" encoding="iso-8859-1"?>
<!-- Generator: Adobe Illustrator 24.1.0, SVG Export Plug-In . SVG Version: 6.00 Build 0)  -->
<svg version="1.1" xmlns="http://www.w3.org/2000/svg" xmlns:xlink="http://www.w3.org/1999/xlink" x="0px" y="0px"
	 viewBox="0 0 512 512" style="enable-background:new 0 0 512 512;" xml:space="preserve">
<g id="_x30_3_Shopping_Cart_x2C__Sale_x2C__Supermarket_x2C__Flower_x2C__Commerce_and_Shopping">
	<g>
		<path d="M115.999,361c355.967,0,335.977,0.362,338.674-0.706c2.997-1.185,5.267-3.733,6.042-6.963
			c0.164-0.684,16.824-94.11,50.129-280.573c1.091-6.12-3.615-11.758-9.845-11.758H78.206L60.486,7.838
			C59.124,3.754,55.303,1,50.999,1h-40c-5.523,0-10,4.477-10,10s4.477,10,10,10h32.792c10.141,30.424,95.041,285.132,106.664,320
			h-34.456c-19.299,0-35,15.701-35,35s15.701,35,35,35h25v21.266c-17.233,4.452-30,20.13-30,38.734c0,22.056,17.944,40,40,40
			s40-17.944,40-40c0-18.604-12.767-34.282-30-38.734V411h220v21.266c-17.233,4.452-30,20.13-30,38.734c0,22.056,17.944,40,40,40
			s40-17.944,40-40c0-18.604-12.767-34.282-30-38.734V411h50c5.522,0,10-4.477,10-10s-4.478-10-10-10h-335c-8.271,0-15-6.729-15-15
			S107.728,361,115.999,361z M131.538,221h49.327l16.667,50h-49.328L131.538,221z M331.414,151v50h-50v-50H331.414z M407.685,151
			c-2.545,14.257-5.626,31.516-8.927,50h-47.345v-50H407.685z M467.626,201h-48.551c3.337-18.687,6.425-35.985,8.927-50h48.553
			L467.626,201z M455.126,271h-48.551c2.93-16.409,5.976-33.464,8.929-50h48.551L455.126,271z M351.414,341v-50h31.274
			c-3.454,19.338-6.565,36.761-8.93,50H351.414z M331.414,291v50h-50v-50H331.414z M281.414,271v-50h50v50H281.414z M351.414,271
			v-50h43.774c-2.967,16.619-6.013,33.675-8.928,50H351.414z M261.414,201H195.28l-16.667-50h82.801V201z M157.531,151l16.667,50
			h-49.327l-16.666-50H157.531z M201.946,221h59.467v50h-42.801L201.946,221z M261.414,291v50h-19.467l-16.667-50H261.414z
			 M394.073,341c2.426-13.582,5.528-30.951,8.93-50h48.552l-8.928,50H394.073z M489.054,81l-8.928,50c-17.471,0-357.227,0-378.587,0
			L84.873,81H489.054z M154.87,291h49.328l16.667,50h-49.328L154.87,291z M170.999,471c0,11.028-8.972,20-20,20s-20-8.972-20-20
			s8.972-20,20-20S170.999,459.972,170.999,471z M410.999,471c0,11.028-8.972,20-20,20s-20-8.972-20-20s8.972-20,20-20
			S410.999,459.972,410.999,471z"/>
	</g>
</g>
<g id="Layer_1">
</g>
</svg>
