<?xml version="1.0" encoding="iso-8859-1"?>
<!-- Generator: Adobe Illustrator 24.3.0, SVG Export Plug-In . SVG Version: 6.00 Build 0)  -->
<svg version="1.1" xmlns="http://www.w3.org/2000/svg" xmlns:xlink="http://www.w3.org/1999/xlink" x="0px" y="0px"
	 viewBox="0 0 512 512" style="enable-background:new 0 0 512 512;" xml:space="preserve">
<g id="_x30_4_x2C__delivery_x2C__truck_x2C__delivery_truck_x2C__shipping_x2C__box">
	<g>
		<polygon points="366,221 446.328,221 429.662,191 366,191 		"/>
		<path d="M496,281v-26.181L468.361,241H346v-70h72.551l-16.667-30H316c0,9.964,0,190.388,0,200.333
			c5.75-0.011,11.284-0.022,16.632-0.032C343.826,317.513,368.016,301,396,301c27.92,0,52.066,16.437,63.294,40.137
			c34.247,0.017,9.18,0.192,36.706,0.196V341v-20v-20h-30v-20H496z"/>
		<path d="M296,271H16v20h30v20H16v30.333h36.617C63.804,317.528,88.003,301,116,301s52.196,16.528,63.383,40.333H296V271z"/>
		<polygon points="206,134.82 206,91 186,91 186,134.82 196,129.82 		"/>
		<polygon points="106,151 76,151 76,171 106,171 106,191 46,191 46,211 106,211 116,211 286,211 286,91 226,91 226,167.18 
			196,152.18 166,167.18 166,91 106,91 106,111 36,111 36,131 106,131 		"/>
		<rect x="106" y="231" width="180" height="20"/>
		<path d="M396,321c-27.614,0-50,22.386-50,50c0,27.614,22.386,50,50,50s50-22.386,50-50C446,343.386,423.614,321,396,321z M406,381
			h-20v-20h20V381z"/>
		<path d="M116,321c-27.614,0-50,22.386-50,50c0,27.614,22.386,50,50,50s50-22.386,50-50C166,343.386,143.614,321,116,321z M126,381
			h-20v-20h20V381z"/>
		<path d="M46.726,361H16v30h32.927C47.032,384.659,46,377.949,46,371C46,367.604,46.256,364.268,46.726,361z"/>
		<path d="M326.726,361H185.274c0.47,3.268,0.726,6.604,0.726,10c0,6.949-1.032,13.659-2.927,20h145.853
			c-1.894-6.341-2.927-13.051-2.927-20C326,367.604,326.256,364.268,326.726,361z"/>
	</g>
</g>
<g id="Layer_1">
</g>
</svg>
