<svg xmlns="http://www.w3.org/2000/svg" width="80" height="80" fill="none" viewBox="0 0 80 80"><path fill="#2f2e30" d="M80 40c0 22.091-17.909 40-40 40S0 62.091 0 40 17.909 0 40 0s40 17.909 40 40m-69.093 0c0 16.068 13.026 29.093 29.093 29.093 16.068 0 29.093-13.026 29.093-29.093S56.067 10.907 40 10.907 10.907 23.933 10.907 40" opacity=".3"/><circle cx="40" cy="40" r="29" fill="#000"/><path stroke="#fff" stroke-width="2" d="M54.142 25h-6.654l.834 8.333S49.988 35 52.488 35a5.38 5.38 0 0 0 3.565-1.343.84.84 0 0 0 .25-.775l-1.176-7.049a1 1 0 0 0-.985-.833Z"/><path stroke="#fafafa" stroke-width="2" d="m47.488 25 .834 8.333S46.655 35 44.155 35s-4.167-1.667-4.167-1.667V25z"/><path stroke="#fafafa" stroke-width="2" d="M39.989 25v8.333S38.322 35 35.822 35s-4.167-1.667-4.167-1.667L32.49 25z"/><path stroke="#fafafa" stroke-width="2" d="M32.488 25h-6.651a1 1 0 0 0-.987.835l-1.175 7.048a.84.84 0 0 0 .25.775 5.4 5.4 0 0 0 3.563 1.344c2.5 0 4.167-1.667 4.167-1.667l.833-8.333z"/><path stroke="#fafafa" stroke-width="2" d="M25 35v16.667A3.333 3.333 0 0 0 28.333 55h23.334A3.333 3.333 0 0 0 55 51.667V35"/><path stroke="#fafafa" stroke-miterlimit="16" stroke-width="2" d="M44.722 55V45a3.334 3.334 0 0 0-3.334-3.333h-3.333A3.333 3.333 0 0 0 34.722 45v10"/></svg>